**ABCDEFGHIJKLMNOPQRSTUVWXYZabcdefghijklmnopqrstuvwxyz**************************
**PARASOLID !"#$%&'()*+,-./:;<=>?@[\]^_`{|}~0123456789**************************
**PART1;
MC=AMD64;
MC_MODEL=Intel64 Family 6 Model 69 Stepping 1, GenuineIntel;
MC_ID=unknown;
OS=Windows_NT;
OS_RELEASE=unknown;
FRU=Parasolid Version 34.1, build 247, 10- 7-2022;
APPL=SOLIDWORKS 2023-2023096;
SITE=;
USER=unknown;
FORMAT=text;
GUISE=transmit;
KEY=KnucklePlate_v4;
FILE=KnucklePlate_v4.x_t;
DATE=Fri Mar  7 16:58:36 2025;
**PART2;
SCH=SCH_3401247_34101;
USFLD_SIZE=0;
**PART3;
**END_OF_HEADER*****************************************************************
T51 : TRANSMIT FILE created by modeller version 340124723 SCH_3401247_34101_1300
6231 0 12 36 CCCI7 lattice222 0 CCCI4 mesh1006 0 I8 polyline1008 0 CCCCCCCDI5 ow
ner1040 0 CCCI16 boundary_lattice222 0 CCCI13 boundary_mesh1006 0 I17 boundary_p
olyline1008 0 CCCA16 index_map_offset0 0 1 dA9 index_map82 0 A17 node_id_index_m
ap82 0 A20 schema_embedding_map82 0 A5 child12 0 A14 lowest_node_id0 0 1 dA16 me
sh_offset_data206 0 Z1 1195 2 3 0 0 0 0 0 0 0 1e3 1e-8 0 4 0 1 0 1 1 5 0 6 7 8 0
 0 9 10 11 0 0 0 0 0 0 0 81 255 2 2 1170 12 1 13 0 0 0 0 14 70 11 CI9 list_type0
 0 1 uI10 notransmit0 0 1 lCCCDCCDI12 finger_index0 0 1 dI12 finger_block1012 0
 CZ3 0 4 T1 0 0 9 20 1 15 15 13 255 5 225 0 1 0 16 0 0 17 0 51 255 6 214 0 16 18
 0 0 --.1805 .01 .119 0 -1 0 .015 0 0 -1 30 255 7 224 0 10 19 0 0 +-.1805 .01 .1
34 0 -1 0 29 255 8 165 0 20 21 0 -.1955 0 .119 19 9 CCCCCCI5 frame230 0 CA5 owne
r12 0 Z9 75 0 1 17 0 22 0 V0 16 255 10 184 0 ?23 0 24 7 0 0 1 18 255 11 72 0 25
 0 26 27 ?1 17 255 25 0 28 29 30 11 31 32 0 33 +18 26 69 0 30 11 34 35 ?1 29 27
 74 0 11 35 36 -.1955 .01 .119 29 35 71 0 26 37 27 -.1955 .01 -.065 29 36 174 0
 38 27 39 -.1805 0 .134 18 38 153 0 40 41 0 36 ?1 29 39 173 0 41 36 42 .01399999
999999982 0 .134 18 41 152 0 43 44 38 39 ?1 29 42 172 0 44 39 45 .02460660171779
8 0 .1296066017177982 18 44 151 0 46 47 41 42 ?1 29 45 171 0 47 42 48 .078606601
7177982 0 .0756066017177982 18 47 150 0 49 50 44 45 ?1 29 48 170 0 50 45 51 .083
 0 .065 18 50 149 0 52 53 47 48 ?1 29 51 169 0 53 48 54 .083 0 -.065 18 53 148 0
 55 56 50 51 ?1 29 54 168 0 56 51 57 .068 0 -.08 18 56 147 0 58 59 53 54 ?1 29 5
7 167 0 59 54 21 -.1805 0 -.08 18 59 146 0 60 61 56 57 ?1 29 21 166 0 61 57 8 -.
1955 0 -.065 18 61 145 0 62 20 59 21 ?1 17 62 0 63 64 65 61 66 67 0 68 +18 20 14
4 0 69 70 61 8 ?1 17 69 0 71 33 68 20 72 73 0 74 +18 70 45 0 75 76 20 77 ?1 17 7
5 0 78 23 79 70 80 81 0 29 -18 76 48 0 80 82 70 83 ?1 29 77 47 0 70 0 83 -.1805
 .01 .134 29 83 50 0 76 77 84 .01399999999999982 .01 .134 29 84 53 0 82 83 85 .0
24606601717798 .01 .1296066017177982 18 82 51 0 86 87 76 84 ?1 29 85 56 0 87 84
 88 .0786066017177982 .01 .0756066017177982 18 87 54 0 89 90 82 85 ?1 29 88 59 0
 90 85 91 .083 .01 .065 18 90 57 0 92 93 87 88 ?1 29 91 62 0 93 88 94 .083 .01 -
.065 18 93 60 0 95 96 90 91 ?1 29 94 65 0 96 91 37 .068 .01 -.08 18 96 63 0 97 3
4 93 94 ?1 29 37 68 0 34 94 35 -.1805 .01 -.08 18 34 66 0 98 26 96 37 ?1 17 98 0
 28 30 97 34 99 100 0 101 +15 255 28 4 0 29 102 0 17 30 0 28 25 98 26 103 104 0
 64 +17 97 0 28 98 95 96 105 106 0 107 +17 99 0 108 109 101 96 98 100 0 0 -16 10
0 33 0 ?98 104 106 110 0 0 1 17 101 0 108 99 60 34 65 111 0 103 -15 108 189 0 60
 112 0 17 60 0 108 101 109 59 113 114 0 65 +17 65 0 63 62 103 59 101 111 0 66 +1
6 111 177 0 ?65 115 116 117 0 0 1 17 103 0 63 65 64 34 30 104 0 0 -15 63 187 0 6
2 118 0 17 64 0 63 103 62 26 68 116 0 31 -16 104 37 0 ?30 32 100 119 0 0 1 16 32
 41 0 ?25 120 104 121 0 0 1 31 255 119 39 0 104 110 121 0 +-.1805 .01 -.065 0 1
 0 0 0 -1 .015 30 110 35 0 100 122 119 0 +.068 .01 -.08 -1 0 558462286028751e-31
 30 121 43 0 32 119 123 0 +-.1955 .01 -.065 3016910393003145e-31 0 1 31 123 164
 0 124 121 125 0 +-.1805 0 .119 0 1 0 0 0 1 .015 16 124 140 0 ?126 127 128 123 0
 0 1 30 125 163 0 127 123 129 0 +-.1805 0 .134 1 0 0 16 127 136 0 ?43 130 124 12
5 0 0 1 31 129 162 0 130 125 131 0 +.0139999999999998 0 .119 0 1 0 0 0 1 .015 16
 130 132 0 ?46 132 127 129 0 0 1 30 131 161 0 132 129 133 0 +.024606601717798 0
 .1296066017177982 .707106781186549 0 -.707106781186546 16 132 128 0 ?49 134 130
 131 0 0 1 31 133 160 0 134 131 135 0 +.068 0 .065 0 1 0 0 0 1 .015 16 134 124 0
 ?52 136 132 133 0 0 1 30 135 159 0 136 133 137 0 +.083 0 .065 -106752213906265e
-30 0 -1 16 136 120 0 ?55 138 134 135 0 0 1 31 137 158 0 138 135 139 0 +.068 0 -
.065 0 1 0 0 0 1 .015 16 138 116 0 ?58 114 136 137 0 0 1 30 139 157 0 114 137 14
0 0 +.068 0 -.08 -1 0 558462286028751e-31 16 114 112 0 ?60 67 138 139 0 0 1 31 1
40 156 0 67 139 141 0 +-.1805 0 -.065 0 1 0 0 0 -1 .015 16 67 108 0 ?62 73 114 1
40 0 0 1 30 141 155 0 73 140 142 0 +-.1955 0 -.065 3016910393003145e-31 0 1 16 7
3 104 0 ?69 143 67 141 0 0 1 30 142 215 0 120 141 144 0 +-.1955 .01 .119 0 -1 0
 16 120 175 0 ?74 116 32 142 0 0 1 30 144 216 0 116 142 117 0 +-.1955 .01 -.065
 0 -1 0 16 116 176 0 ?68 111 120 144 0 0 1 30 117 217 0 111 144 145 0 +-.1805 .0
1 -.08 0 -1 0 30 145 218 0 115 117 146 0 +.068 .01 -.08 0 -1 0 16 115 178 0 ?109
 147 111 145 0 0 1 30 146 219 0 147 145 148 0 +.083 .01 -.065 0 -1 0 16 147 179
 0 ?149 150 115 146 0 0 1 30 148 220 0 150 146 151 0 +.083 .01 .065 0 -1 0 16 15
0 180 0 ?152 153 147 148 0 0 1 30 151 221 0 153 148 154 0 +.0786066017177982 .01
 .0756066017177982 0 -1 0 16 153 181 0 ?155 156 150 151 0 0 1 30 154 222 0 156 1
51 19 0 +.024606601717798 .01 .1296066017177982 0 -1 0 16 156 182 0 ?157 24 153
 154 0 0 1 30 19 223 0 24 154 7 0 +.01399999999999982 .01 .134 0 -1 0 16 24 183
 0 ?158 10 156 19 0 0 1 17 158 0 159 46 160 41 79 24 0 161 +15 159 199 0 46 162
 0 17 46 0 159 163 158 44 161 130 0 157 +17 160 0 159 158 163 76 86 164 0 0 -17
 79 0 78 75 43 76 158 24 0 160 -17 161 0 165 40 166 41 46 130 0 0 -15 165 103 0
 167 168 0 17 40 0 165 167 161 38 43 127 0 23 -17 166 0 165 161 169 44 49 132 0
 0 -17 169 0 165 166 170 47 52 134 0 0 -17 49 0 171 172 157 47 166 132 0 155 +15
 171 197 0 49 173 0 17 172 0 171 174 49 87 155 153 0 175 -17 157 0 171 49 174 44
 163 156 0 166 +17 155 0 176 52 175 47 172 153 0 169 +15 176 195 0 52 177 0 17 5
2 0 176 178 155 50 169 134 0 152 +17 175 0 176 155 178 87 92 179 0 0 -17 178 0 1
76 175 52 90 152 150 0 180 -17 92 0 28 95 89 90 175 179 0 178 +16 179 21 0 ?92 1
81 182 183 0 0 1 16 181 25 0 ?95 106 179 184 0 0 1 16 182 17 0 ?89 179 164 185 0
 0 1 31 183 23 0 179 185 184 0 +.068 .01 .065 0 1 0 0 0 1 .015 30 185 19 0 182 1
86 183 0 +.024606601717798 .01 .1296066017177982 .707106781186549 0 -.7071067811
86546 30 184 27 0 181 183 122 0 +.083 .01 .065 -106752213906265e-30 0 -1 31 122
 31 0 106 184 110 0 +.068 .01 -.065 0 1 0 0 0 1 .015 16 106 29 0 ?97 100 181 122
 0 0 1 31 186 15 0 164 187 185 0 +.0139999999999998 .01 .119 0 1 0 0 0 1 .015 16
 164 13 0 ?86 182 81 186 0 0 1 30 187 11 0 81 188 186 0 +-.1805 .01 .134 1 0 0 1
6 81 9 0 ?80 164 143 187 0 0 1 31 188 7 0 143 189 187 0 +-.1805 .01 .119 0 1 0 0
 0 1 .015 16 143 5 0 ?29 81 73 188 0 0 1 31 189 356 0 128 190 188 0 +.028 0 -.06
5 0 1 0 0 0 1 .006 16 128 337 0 ?191 124 192 189 0 0 1 31 190 357 0 192 193 189
 0 +.028 .01 -.065 0 1 0 0 0 1 .006 16 192 336 0 ?194 128 195 190 0 0 1 31 193 4
06 0 195 196 190 0 +.028 0 .065 0 1 0 0 0 1 .006 16 195 387 0 ?197 192 198 193 0
 0 1 31 196 407 0 198 199 193 0 +.028 .01 .065 0 1 0 0 0 1 .006 16 198 386 0 ?20
0 195 201 196 0 0 1 31 199 456 0 201 202 196 0 +-.07275 0 .065 0 1 0 0 0 1 .006
 16 201 437 0 ?203 198 204 199 0 0 1 31 202 457 0 204 205 199 0 +-.07275 .01 .06
5 0 1 0 0 0 1 .006 16 204 436 0 ?206 201 207 202 0 0 1 31 205 506 0 207 208 202
 0 +-.1735 0 .065 0 1 0 0 0 1 .006 16 207 487 0 ?209 204 210 205 0 0 1 31 208 50
7 0 210 211 205 0 +-.1735 .01 .065 0 1 0 0 0 1 .006 16 210 486 0 ?212 207 213 20
8 0 0 1 31 211 556 0 213 214 208 0 +-.07275 0 -.065 0 1 0 0 0 1 .006 16 213 537
 0 ?215 210 216 211 0 0 1 31 214 557 0 216 217 211 0 +-.07275 .01 -.065 0 1 0 0
 0 1 .006 16 216 536 0 ?218 213 219 214 0 0 1 31 217 606 0 219 220 214 0 +-.1735
 0 -.065 0 1 0 0 0 1 .006 16 219 587 0 ?221 216 222 217 0 0 1 31 220 607 0 222 2
23 217 0 +-.1735 .01 -.065 0 1 0 0 0 1 .006 16 222 586 0 ?224 219 225 220 0 0 1
 31 223 665 0 225 226 220 0 +0 1734723475976805e-33 0 0 1 0 0 0 1 .01275 16 225
 646 0 ?227 222 228 223 0 0 1 31 226 666 0 228 229 223 0 +0 .01 0 0 1 0 0 0 1 .0
1275 16 228 645 0 ?230 225 231 226 0 0 1 31 229 735 0 231 232 226 0 +-.057718576
6543754 0 .1108763541472796 0 1 0 0 0 1 .00396875 16 231 716 0 ?233 228 234 229
 0 0 1 31 232 736 0 234 235 229 0 +-.0577185766543754 .01 .1108763541472796 0 1
 0 0 0 1 .00396875 16 234 715 0 ?236 231 237 232 0 0 1 31 235 785 0 237 238 232
 0 +-.0468258241769858 0 .1158979818208496 0 1 0 0 0 1 .00396875 16 237 766 0 ?2
39 234 240 235 0 0 1 31 238 786 0 240 241 235 0 +-.0468258241769858 .01 .1158979
818208496 0 1 0 0 0 1 .00396875 16 240 765 0 ?242 237 243 238 0 0 1 31 241 835 0
 243 244 238 0 +-.03550191808798785 0 .119852466858525 0 1 0 0 0 1 .00396875 16
 243 816 0 ?245 240 246 241 0 0 1 31 244 836 0 246 247 241 0 +-.0355019180879878
5 .01 .119852466858525 0 1 0 0 0 1 .00396875 16 246 815 0 ?248 243 249 244 0 0 1
 31 247 885 0 249 250 244 0 +-.0238511244220664 0 .1227033979309582 0 1 0 0 0 1
 .00396875 16 249 866 0 ?251 246 252 247 0 0 1 31 250 886 0 252 253 247 0 +-.023
8511244220664 .01 .1227033979309582 0 1 0 0 0 1 .00396875 16 252 865 0 ?254 249
 255 250 0 0 1 31 253 935 0 255 256 250 0 +-.01198071906502712 0 .12442452479589
74 0 1 0 0 0 1 .00396875 16 255 916 0 ?257 252 258 253 0 0 1 31 256 936 0 258 25
9 253 0 +-.01198071906502712 .01 .1244245247958974 0 1 0 0 0 1 .00396875 16 258
 915 0 ?260 255 261 256 0 0 1 31 259 985 0 261 262 256 0 +-612323399573678e-33 0
 .125 0 1 0 0 0 1 .00396875 16 261 966 0 ?263 258 264 259 0 0 1 31 262 986 0 264
 0 259 0 +-612323399573678e-33 .01 .125 0 1 0 0 0 1 .00396875 16 264 965 0 ?265
 261 0 262 0 0 1 17 265 0 266 265 265 0 267 264 0 0 +15 266 979 0 265 268 0 17 2
67 0 269 267 267 0 265 264 0 0 -15 269 953 0 267 102 270 14 255 102 1 271 ?168 2
72 269 5 273 +0 0 168 272 22 15 270 903 0 274 102 275 17 274 0 270 274 274 0 260
 258 0 0 -15 275 853 0 276 102 277 17 276 0 275 276 276 0 254 252 0 0 -15 277 79
0 0 278 102 279 17 278 0 277 278 278 0 248 246 0 0 -15 279 740 0 280 102 281 17
 280 0 279 280 280 0 242 240 0 0 -15 281 690 0 282 102 283 17 282 0 281 282 282
 0 236 234 0 0 -15 283 630 0 284 102 285 17 284 0 283 284 284 0 230 228 0 0 -15
 285 574 0 286 102 287 17 286 0 285 286 286 0 224 222 0 0 -15 287 511 0 288 102
 289 17 288 0 287 288 288 0 218 216 0 0 -15 289 474 0 290 102 291 17 290 0 289 2
90 290 0 212 210 0 0 -15 291 424 0 292 102 293 17 292 0 291 292 292 0 206 204 0
 0 -15 293 361 0 294 102 295 17 294 0 293 294 294 0 200 198 0 0 -15 295 324 0 29
6 102 28 17 296 0 295 296 296 0 194 192 0 0 -17 194 0 297 194 194 0 296 192 0 0
 +15 297 350 0 194 298 0 14 298 346 299 ?300 168 301 5 302 -0 0 300 168 22 81 1
 299 1172 303 298 304 0 271 305 306 14 300 396 305 ?307 298 308 5 309 -0 0 307 2
98 22 14 168 102 310 ?298 102 311 5 312 -0 0 298 102 22 15 301 349 0 313 298 297
 51 302 355 0 298 309 273 0 +.028 .01 -.065 0 1 0 .006 0 0 1 13 22 76 0 0 0 0 0
 0 9 16 14 16 204 314 ?315 0 316 5 6 -0 0 315 0 22 81 1 314 1175 303 16 317 0 31
0 318 319 14 315 202 318 ?162 16 78 5 18 -0 0 162 16 22 15 316 203 0 126 16 0 17
 126 0 316 320 74 38 167 124 0 0 +17 320 0 316 321 126 70 23 10 0 0 -17 74 0 316
 126 321 20 33 120 0 167 +17 167 0 165 72 40 20 126 124 0 0 -17 72 0 165 66 167
 61 69 73 0 0 -17 66 0 165 113 72 59 62 67 0 0 -17 113 0 165 322 66 56 60 114 0
 0 -17 322 0 165 170 113 53 58 138 0 0 -17 170 0 165 169 322 50 55 136 0 0 -17 5
8 0 323 107 149 56 322 138 0 109 +15 323 191 0 58 324 0 17 107 0 323 105 58 96 1
09 115 0 99 -17 149 0 323 58 105 53 325 147 0 322 +17 109 0 108 60 99 56 107 115
 0 113 +17 105 0 323 149 107 93 97 106 0 0 -17 325 0 326 180 55 93 149 147 0 105
 -15 326 193 0 55 327 0 17 180 0 326 152 325 90 95 181 0 0 -17 55 0 326 325 152
 53 170 136 0 149 +17 152 0 326 55 180 50 178 150 0 170 +17 95 0 28 97 92 93 180
 181 0 325 +14 327 194 328 ?324 177 326 5 329 -0 0 324 177 22 81 1 328 1177 303
 327 330 0 318 331 332 14 324 192 331 ?112 327 323 5 333 -0 0 112 327 22 14 177
 196 334 ?327 173 176 5 335 -0 0 327 173 22 50 255 329 209 0 327 333 335 0 +.083
 .01 .065 -1 0 106752213906265e-30 106752213906265e-30 0 1 51 333 208 0 324 336
 329 0 -.068 .01 -.065 0 -1 0 .015 0 0 -1 51 335 210 0 177 329 337 0 -.068 .01 .
065 0 -1 0 .015 0 0 -1 50 337 211 0 173 335 338 0 +.024606601717798 .01 .1296066
017177982 -.707106781186546 0 -.707106781186549 -.707106781186549 0 .70710678118
6546 14 173 198 339 ?177 162 171 5 337 -0 0 177 162 22 51 338 212 0 162 337 18 0
 -.0139999999999998 .01 .119 0 -1 0 .015 0 0 -1 14 162 200 340 ?173 315 159 5 33
8 -0 0 173 315 22 50 18 213 0 315 338 6 0 +-.1805 .01 .134 0 0 -1 -1 0 0 81 1 34
0 1181 303 162 341 0 339 342 343 80 7 CCCCCDI12 legal_owners0 16 1 lCZ1 303 344
 345 9000 1 1 1 1 1 1 1 1 0 FFFFTFTFFFFFFFFF1 81 1 341 1096 346 162 0 340 347 34
8 349 81 1 339 1180 303 173 348 0 334 340 350 81 1 342 1182 303 112 351 0 340 35
2 353 82 255 1 343 -2102328750 14 112 190 342 ?118 324 108 5 336 -0 0 118 324 22
 81 1 351 1101 346 112 0 342 354 355 356 81 1 352 1183 303 118 355 0 342 357 358
 82 1 353 -2103639470 14 118 188 352 ?272 112 63 5 359 -0 0 272 112 22 81 1 355
 1102 346 118 0 352 351 360 361 81 1 357 1184 303 272 360 0 352 362 363 82 1 358
 -2103901614 14 272 186 357 ?102 118 71 5 364 -0 0 102 118 22 81 1 360 1103 346
 272 0 357 355 365 366 81 1 362 1185 303 307 367 0 357 368 369 82 1 363 -2104163
758 14 307 446 362 ?370 300 371 5 372 -0 0 370 300 22 81 1 367 1108 346 307 0 36
2 373 374 375 81 1 368 1186 303 370 374 0 362 376 377 82 1 369 1290404452 14 370
 496 368 ?378 307 379 5 380 -0 0 378 307 22 81 1 374 1109 346 370 0 368 367 381
 382 81 1 376 1187 303 378 381 0 368 383 384 82 1 377 1274544740 14 378 546 376
 ?385 370 386 5 387 -0 0 385 370 22 81 1 381 1110 346 378 0 376 374 388 389 81 1
 383 1188 303 385 388 0 376 390 391 82 1 384 1258685028 14 385 596 383 ?392 378
 393 5 394 -0 0 392 378 22 81 1 388 1111 346 385 0 383 381 395 396 81 1 390 1189
 303 392 395 0 383 397 398 82 1 391 1242759780 14 392 655 390 ?399 385 400 5 401
 -0 0 399 385 22 81 1 395 1112 346 392 0 390 388 402 403 81 1 397 1190 303 399 4
02 0 390 404 405 82 1 398 1355940453 14 399 725 397 ?406 392 407 5 408 -0 0 406
 392 22 81 1 402 1113 346 399 0 397 395 409 410 81 1 404 1191 303 406 409 0 397
 411 412 82 1 405 1752892009 14 406 775 404 ?413 399 414 5 415 -0 0 413 399 22 8
1 1 409 1114 346 406 0 404 402 416 417 81 1 411 1192 303 413 416 0 404 418 419 8
2 1 412 1737032297 14 413 825 411 ?420 406 421 5 422 -0 0 420 406 22 81 1 416 11
15 346 413 0 411 409 423 424 81 1 418 1193 303 420 423 0 411 425 426 82 1 419 17
21172585 14 420 875 418 ?427 413 428 5 429 -0 0 427 413 22 81 1 423 1116 346 420
 0 418 416 430 431 81 1 425 1194 303 427 430 0 418 432 433 82 1 426 1705312873 1
4 427 925 425 ?268 420 434 5 435 -0 0 268 420 22 81 1 430 1117 346 427 0 425 423
 436 437 81 1 432 1195 303 268 436 0 425 0 438 82 1 433 1689453161 14 268 975 43
2 ?0 427 439 5 440 -0 0 0 427 22 81 1 436 1118 346 268 0 432 430 0 441 82 1 438
 1673527913 80 1 346 0 442 8001 0 0 0 0 3 5 0 0 0 FFFFTFTFFFFFFFFF2 83 255 3 441
 .792156862745098 .819607843137255 .933333333333333 79 255 15 442 SDL/TYSA_COLOU
R15 439 978 0 443 268 266 51 440 984 0 268 0 435 0 +-612323399573678e-33 .01 .12
5 0 1 0 .00396875 0 0 1 51 435 934 0 427 440 429 0 +-.01198071906502712 .01 .124
4245247958974 0 1 0 .00396875 0 0 1 51 429 884 0 420 435 422 0 +-.02385112442206
64 .01 .1227033979309582 0 1 0 .00396875 0 0 1 51 422 834 0 413 429 415 0 +-.035
50191808798785 .01 .119852466858525 0 1 0 .00396875 0 0 1 51 415 784 0 406 422 4
08 0 +-.0468258241769858 .01 .1158979818208496 0 1 0 .00396875 0 0 1 51 408 734
 0 399 415 401 0 +-.0577185766543754 .01 .1108763541472796 0 1 0 .00396875 0 0 1
 51 401 664 0 392 408 394 0 +0 .01 0 0 1 0 .01275 0 0 1 51 394 605 0 385 401 387
 0 +-.1735 .01 -.065 0 1 0 .006 0 0 1 51 387 555 0 378 394 380 0 +-.07275 .01 -.
065 0 1 0 .006 0 0 1 51 380 505 0 370 387 372 0 +-.1735 .01 .065 0 1 0 .006 0 0
 1 51 372 455 0 307 380 309 0 +-.07275 .01 .065 0 1 0 .006 0 0 1 51 309 405 0 30
0 372 302 0 +.028 .01 .065 0 1 0 .006 0 0 1 17 443 0 439 443 443 0 263 261 0 0 -
17 263 0 311 263 263 0 443 261 0 0 +15 311 939 0 263 168 444 15 444 889 0 257 16
8 445 17 257 0 444 257 257 0 446 255 0 0 +15 445 839 0 251 168 447 17 251 0 445
 251 251 0 448 249 0 0 +15 447 802 0 245 168 449 17 245 0 447 245 245 0 450 243
 0 0 +15 449 752 0 239 168 451 17 239 0 449 239 239 0 452 237 0 0 +15 451 702 0
 233 168 453 17 233 0 451 233 233 0 454 231 0 0 +15 453 637 0 227 168 455 17 227
 0 453 227 227 0 456 225 0 0 +15 455 560 0 221 168 457 17 221 0 455 221 221 0 45
8 219 0 0 +15 457 523 0 215 168 459 17 215 0 457 215 215 0 460 213 0 0 +15 459 4
60 0 209 168 461 17 209 0 459 209 209 0 462 207 0 0 +15 461 410 0 203 168 463 17
 203 0 461 203 203 0 464 201 0 0 +15 463 373 0 197 168 465 17 197 0 463 197 197
 0 466 195 0 0 +15 465 311 0 191 168 165 17 191 0 465 191 191 0 313 128 0 0 +17
 313 0 301 313 313 0 191 128 0 0 -17 466 0 308 466 466 0 197 195 0 0 -15 308 399
 0 466 300 467 15 467 400 0 200 300 0 17 200 0 467 200 200 0 294 198 0 0 +17 464
 0 371 464 464 0 203 201 0 0 -15 371 449 0 464 307 468 15 468 450 0 206 307 0 17
 206 0 468 206 206 0 292 204 0 0 +17 462 0 379 462 462 0 209 207 0 0 -15 379 499
 0 462 370 469 15 469 500 0 212 370 0 17 212 0 469 212 212 0 290 210 0 0 +17 460
 0 386 460 460 0 215 213 0 0 -15 386 549 0 460 378 470 15 470 550 0 218 378 0 17
 218 0 470 218 218 0 288 216 0 0 +17 458 0 393 458 458 0 221 219 0 0 -15 393 599
 0 458 385 471 15 471 600 0 224 385 0 17 224 0 471 224 224 0 286 222 0 0 +17 456
 0 400 456 456 0 227 225 0 0 -15 400 658 0 456 392 472 15 472 659 0 230 392 0 17
 230 0 472 230 230 0 284 228 0 0 +17 454 0 407 454 454 0 233 231 0 0 -15 407 728
 0 454 399 473 15 473 729 0 236 399 0 17 236 0 473 236 236 0 282 234 0 0 +17 452
 0 414 452 452 0 239 237 0 0 -15 414 778 0 452 406 474 15 474 779 0 242 406 0 17
 242 0 474 242 242 0 280 240 0 0 +17 450 0 421 450 450 0 245 243 0 0 -15 421 828
 0 450 413 475 15 475 829 0 248 413 0 17 248 0 475 248 248 0 278 246 0 0 +17 448
 0 428 448 448 0 251 249 0 0 -15 428 878 0 448 420 476 15 476 879 0 254 420 0 17
 254 0 476 254 254 0 276 252 0 0 +17 446 0 434 446 446 0 257 255 0 0 -15 434 928
 0 446 427 477 15 477 929 0 260 427 0 17 260 0 477 260 260 0 274 258 0 0 +83 3 4
37 .792156862745098 .819607843137255 .933333333333333 83 3 431 .792156862745098
 .819607843137255 .933333333333333 83 3 424 .792156862745098 .819607843137255 .9
33333333333333 83 3 417 .792156862745098 .819607843137255 .933333333333333 83 3
 410 .792156862745098 .819607843137255 .933333333333333 83 3 403 .79215686274509
8 .819607843137255 .933333333333333 83 3 396 .792156862745098 .819607843137255 .
933333333333333 83 3 389 .792156862745098 .819607843137255 .933333333333333 83 3
 382 .792156862745098 .819607843137255 .933333333333333 81 1 373 1107 346 300 0
 305 304 367 478 83 3 375 .792156862745098 .819607843137255 .933333333333333 81
 1 305 1173 303 300 373 0 299 310 479 81 1 304 1106 346 298 0 299 480 373 481 83
 3 478 .792156862745098 .819607843137255 .933333333333333 81 1 480 1105 346 168
 0 310 365 304 482 83 3 481 .792156862745098 .819607843137255 .933333333333333 8
1 1 310 1174 303 168 480 0 305 314 483 81 1 365 1104 346 102 0 271 360 480 484 8
3 3 482 .792156862745098 .819607843137255 .933333333333333 81 1 271 1171 303 102
 365 0 0 299 485 83 3 484 .792156862745098 .819607843137255 .933333333333333 82
 1 485 -2118974871 82 1 483 -2106260887 82 1 479 1306329700 83 3 366 .7921568627
45098 .819607843137255 .933333333333333 15 71 185 0 69 272 0 50 364 205 0 272 31
2 359 0 +-.1955 .01 -.065 1 0 -3016910393003145e-31 -3016910393003145e-31 0 -1 5
0 312 154 0 168 273 364 0 +-.1805 0 .119 0 1 0 0 0 1 51 359 206 0 118 364 336 0
 --.1805 .01 -.065 0 -1 0 .015 0 0 -1 50 336 207 0 112 359 333 0 +.068 .01 -.08
 558462286028751e-31 0 1 1 0 -558462286028751e-31 50 273 3 0 102 302 312 0 +-.18
05 .01 .119 0 1 0 0 0 1 83 3 361 .792156862745098 .819607843137255 .933333333333
333 81 1 354 1100 346 324 0 331 330 351 486 83 3 356 .792156862745098 .819607843
137255 .933333333333333 81 1 331 1178 303 324 354 0 328 334 487 81 1 330 1099 34
6 327 0 328 488 354 489 83 3 486 .792156862745098 .819607843137255 .933333333333
333 81 1 488 1098 346 177 0 334 348 330 490 83 3 489 .792156862745098 .819607843
137255 .933333333333333 81 1 334 1179 303 177 488 0 331 339 491 81 1 348 1097 34
6 173 0 339 341 488 492 83 3 490 .792156862745098 .819607843137255 .933333333333
333 83 3 492 .792156862745098 .819607843137255 .933333333333333 82 1 491 -210285
3038 82 1 487 -2103377326 82 1 350 -2102590894 81 1 347 1095 346 315 0 318 317 3
41 493 83 3 349 .792156862745098 .819607843137255 .933333333333333 81 1 318 1176
 303 315 347 0 314 328 494 81 1 317 1094 346 16 0 314 0 347 495 83 3 493 .792156
862745098 .819607843137255 .933333333333333 83 3 495 .792156862745098 .819607843
137255 .933333333333333 82 1 494 -2102066606 79 14 345 SWEntUnchanged82 1 332 -2
103115182 17 321 0 316 74 320 11 29 143 0 0 -17 33 0 71 31 69 11 74 120 0 321 -1
7 31 0 71 68 33 26 25 32 0 0 -17 68 0 71 69 31 61 64 116 0 72 +17 29 0 28 80 25
 70 321 143 0 320 +17 80 0 28 86 29 76 75 81 0 79 +17 86 0 28 89 80 82 160 164 0
 163 +17 89 0 28 92 86 87 174 182 0 172 +17 163 0 159 160 46 82 157 156 0 174 -1
7 174 0 171 157 172 82 89 182 0 0 -17 23 0 78 43 75 38 320 10 0 126 +15 78 201 0
 43 315 0 17 43 0 78 79 23 41 40 127 0 158 +82 1 319 -2101804462 82 1 306 132218
9412 19 17 226 0 1 0 9 5 0 S0 74 4 CI16 index_map_offset0 0 1 dCCZ20 15 9 0 0 49
6 497 432 498 499 500 13 436 2 0 0 0 0 0 0 0 0 0 0 0 81 2 496 274 501 1 0 497 0
 0 0 502 81 2 497 278 503 1 496 498 0 0 0 504 81 1 498 1002 505 1 497 499 0 0 50
6 81 2 499 1029 507 1 498 500 0 0 0 508 81 2 500 1061 509 1 499 13 0 0 510 0 81
 2 13 1092 511 1 500 2 0 0 0 0 80 2 511 512 513 9000 0 0 0 0 3 5 0 0 0 FFTFFFFFF
FFFFFFF9 1 79 16 513 BODY_RECIPE_200180 2 509 514 515 9000 0 0 0 0 3 5 0 0 0 FFT
FTTTFFTFFFFFF3 3 84 255 25 510 5/16 (0.3125) Dowel Hole179 21 515 SWIMPLICITBODY
NAME_ID80 2 507 516 517 9000 0 0 0 0 3 5 0 0 0 FFTFFFFFFFFFFFFF9 1 82 1 508 1 79
 24 517 BODY_IN_LIGHTWEIGHT_PERM80 1 505 518 519 9000 1 1 1 1 1 1 1 1 0 FFTFFFFF
FFFFFFFF1 82 1 506 623025 79 10 519 BODY_MATCH80 2 503 520 521 9000 0 0 0 0 3 5
 0 0 0 FFTFFFFFFFFFFFFF9 1 82 1 504 93 79 30 521 LAST_BODY_MODIFYING_FEATURE_ID8
0 2 501 522 523 9000 0 0 0 0 3 5 0 0 0 FFTFFFFFFFFFFFFF9 1 82 1 502 1997 79 19 5
23 ENT_TIME_STAMP_200180 2 12 524 525 9000 0 0 0 0 3 5 0 0 0 FFTFFFFFFFFFFFFF9 1
 82 1 14 105 79 12 525 ATOM_ID_20011 0 
