**ABCDEFGHIJKLMNOPQRSTUVWXYZabcdefghijklmnopqrstuvwxyz**************************
**PARASOLID !"#$%&'()*+,-./:;<=>?@[\]^_`{|}~0123456789**************************
**PART1;
MC=AMD64;
MC_MODEL=Intel64 Family 6 Model 69 Stepping 1, GenuineIntel;
MC_ID=unknown;
OS=Windows_NT;
OS_RELEASE=unknown;
FRU=Parasolid Version 34.1, build 247, 10- 7-2022;
APPL=SOLIDWORKS 2023-2023096;
SITE=;
USER=unknown;
FORMAT=text;
GUISE=transmit;
KEY=TopSensorMount_v4;
FILE=TopSensorMount_v4.x_t;
DATE=Fri Mar  7 16:58:12 2025;
**PART2;
SCH=SCH_3401247_34101;
USFLD_SIZE=0;
**PART3;
**END_OF_HEADER*****************************************************************
T51 : TRANSMIT FILE created by modeller version 340124723 SCH_3401247_34101_1300
6231 0 12 36 CCCI7 lattice222 0 CCCI4 mesh1006 0 I8 polyline1008 0 CCCCCCCDI5 ow
ner1040 0 CCCI16 boundary_lattice222 0 CCCI13 boundary_mesh1006 0 I17 boundary_p
olyline1008 0 CCCA16 index_map_offset0 0 1 dA9 index_map82 0 A17 node_id_index_m
ap82 0 A20 schema_embedding_map82 0 A5 child12 0 A14 lowest_node_id0 0 1 dA16 me
sh_offset_data206 0 Z1 1809 2 3 0 0 0 0 0 0 0 1e3 1e-8 0 4 0 1 0 1 1 5 0 6 7 8 0
 0 9 10 11 0 0 0 0 0 0 0 81 255 2 2 1770 12 1 13 0 0 0 0 14 70 11 CI9 list_type0
 0 1 uI10 notransmit0 0 1 lCCCDCCDI12 finger_index0 0 1 dI12 finger_block1012 0
 CZ3 0 4 T1 0 0 10 20 1 15 15 13 255 5 62 0 1 0 16 0 0 17 0 51 255 6 1546 0 18 1
9 0 0 +-.00584916012071176 -.00125 -.0065 0 0 1 .03 1 0 0 31 255 7 1503 0 10 20
 0 0 +-.00584916012071176 -.00125 -.0065 0 0 -1 -1 0 0 .03 29 255 8 1478 0 11 21
 0 -.0185277079729328 .02593923361109945 -.0065 19 9 CCCCCCI5 frame230 0 CA5 own
er12 0 Z9 66 0 1 17 0 22 0 V0 16 255 10 1496 0 ?23 0 24 7 0 0 1 18 255 11 1476 0
 25 0 26 8 ?1 17 255 25 0 27 28 29 11 30 31 0 32 +18 26 1473 0 33 11 34 21 ?1 17
 33 0 35 36 37 26 38 24 0 29 +18 34 1460 0 39 26 40 41 ?1 29 21 1475 0 26 41 8 -
.0185277079729328 .02593923361109945 .0065 29 41 1462 0 34 42 21 .00584916012071
176 .02875 -.0065 29 42 1459 0 40 43 41 -.00584916012071176 .02875 -.0065 18 40
 1457 0 23 34 44 42 ?1 29 43 1456 0 44 45 42 .00584916012071176 .02875 .0065 18
 44 1454 0 46 40 47 43 ?1 29 45 1453 0 47 48 43 -.00584916012071176 .02875 .0065
 18 47 1451 0 38 44 49 45 ?1 29 48 1445 0 49 50 45 .0185277079729328 .0259392336
1109945 .0065 18 49 1443 0 51 47 52 48 ?1 29 50 1442 0 52 53 48 .018527707972932
8 .02593923361109945 -.0065 18 52 1440 0 54 49 55 50 ?1 29 53 1066 0 55 56 50 -.
0228432156230247 .02392687934503515 .0065 18 55 1064 0 36 52 57 53 ?1 29 56 262
 0 57 58 53 .00698703723907965 0 -.01143421665964548 18 57 261 0 59 55 60 56 ?1
 29 58 409 0 60 61 56 -.004267937167841045 0 -.01270215384615384 18 60 368 0 62
 57 63 58 ?1 29 61 487 0 63 64 58 .004267937167841045 0 .01270215384615384 18 63
 445 0 65 60 66 61 ?1 29 64 772 0 66 67 61 .00698703723907965 -.0115071796769724
2 -.01143421665964548 18 66 671 0 68 63 69 64 ?1 29 67 773 0 69 70 64 .006926142
42377555 -.013 -.01100129770188846 18 69 672 0 71 66 72 67 ?1 29 70 774 0 72 73
 67 .0124737914998974 -.01150717967697242 -.00489535755763431 18 72 670 0 74 69
 75 70 ?1 29 73 775 0 75 76 70 .0120368752801654 -.013 -.00491056345949656 18 75
 673 0 77 72 78 73 ?1 29 76 777 0 78 79 73 .0124737914998974 0 -.004895357557634
31 18 78 674 0 80 75 81 76 ?1 29 79 778 0 81 82 76 -.004267937167841045 -.011507
17967697242 -.01270215384615384 18 81 711 0 83 78 84 79 ?1 29 82 779 0 84 85 79
 -.00397544443870204 -.013 -.01237723076923076 18 84 712 0 86 81 87 82 ?1 29 85
 780 0 87 88 82 .004267937167841045 -.01150717967697242 -.01270215384615384 18 8
7 710 0 89 84 90 85 ?1 29 88 781 0 90 91 85 .003975444438702045 -.013 -.01237723
076923076 18 90 713 0 92 87 93 88 ?1 29 91 783 0 93 94 88 .004267937167841045 0
 -.01270215384615384 18 93 714 0 95 90 96 91 ?1 29 94 784 0 96 97 91 .0042679371
67841045 -.01150717967697242 .01270215384615384 18 96 631 0 98 93 99 94 ?1 29 97
 785 0 99 100 94 .003975444438702045 -.013 .01237723076923076 18 99 632 0 101 96
 102 97 ?1 29 100 786 0 102 103 97 -.00426793716784104 -.01150717967697242 .0127
0215384615384 18 102 630 0 104 99 105 100 ?1 29 103 787 0 105 106 100 -.00397544
4438702045 -.013 .01237723076923076 18 105 633 0 107 102 108 103 ?1 29 106 788 0
 108 109 103 -.00426793716784104 0 .01270215384615384 18 108 634 0 110 105 111 1
06 ?1 29 109 1340 0 111 112 106 -.0228432156230247 .02392687934503515 -.0065 18
 111 1222 0 113 108 114 109 ?1 29 112 1341 0 114 115 109 .0228432156230247 .0239
2687934503515 -.0065 18 114 1209 0 116 111 117 112 ?1 29 115 1342 0 117 118 112
 -.0228432156230247 .03 -.0065 18 117 1203 0 119 114 120 115 ?1 29 118 1343 0 12
0 121 115 .0228432156230247 .03 -.0065 18 120 1217 0 122 117 123 118 ?1 29 121 1
344 0 123 124 118 -.0228432156230247 .03 .0065 18 123 1216 0 125 120 126 121 ?1
 29 124 1345 0 126 127 121 .0228432156230247 .03 .0065 18 126 1207 0 128 123 129
 124 ?1 29 127 1346 0 129 0 124 .0228432156230247 .02392687934503515 .0065 18 12
9 1219 0 130 126 0 127 ?1 17 130 0 131 132 133 129 134 135 0 136 +15 255 131 129
2 0 137 138 0 17 132 0 131 137 130 114 139 140 0 141 +17 133 0 131 130 137 49 14
2 143 0 134 +17 134 0 35 46 136 49 130 135 0 0 -16 135 1444 0 ?130 144 145 146 0
 0 1 17 136 0 35 134 128 129 147 148 0 139 -15 35 1306 0 134 149 0 17 128 0 35 1
36 125 126 150 144 0 147 -17 147 0 151 152 139 126 136 148 0 153 +16 148 1078 0
 ?147 140 154 155 0 0 1 17 139 0 151 147 141 129 132 140 0 0 -15 151 1098 0 113
 156 157 17 141 0 151 139 158 114 122 159 0 0 -16 140 1082 0 ?132 159 148 160 0
 0 1 16 159 1088 0 ?122 161 140 162 0 0 1 32 255 160 1084 0 140 155 162 0 -0 .03
45788457269375 0 -.4226182617407015 -.906307787036649 0 .906307787036649 -.42261
82617407015 0 .0262052255753592 .02375 30 255 155 1080 0 148 163 160 0 -.0228432
156230247 0 .0065 0 -1 0 30 162 1090 0 159 160 164 0 -.0228432156230247 0 -.0065
 0 -1 0 30 164 1096 0 161 162 165 0 +-.0228432156230247 0 -.0065 0 -1 0 16 161 1
094 0 ?166 143 159 164 0 0 1 30 165 1448 0 143 164 167 0 +.0185277079729328 .025
93923361109945 -.0065 0 0 1 16 143 1446 0 ?133 168 161 165 0 0 1 30 167 1465 0 1
68 165 169 0 +-.00584916012071176 .02875 -.0065 0 0 1 16 168 1463 0 ?170 171 143
 167 0 0 1 30 169 1470 0 171 167 172 0 -.00584916012071176 .02875 -.0065 0 0 1 1
6 171 1468 0 ?39 31 168 169 0 0 1 30 172 1481 0 31 169 173 0 --.0185277079729328
 .02593923361109945 -.0065 0 0 1 16 31 1479 0 ?25 174 171 172 0 0 1 31 173 1500
 0 174 172 175 0 -.00584916012071176 -.00125 .0065 0 0 -1 -1 0 0 .03 16 174 1484
 0 ?46 176 31 173 0 0 1 31 175 1501 0 176 173 20 0 +.00584916012071176 -.00125 -
.0065 0 0 -1 -1 0 0 .03 16 176 1488 0 ?54 24 174 175 0 0 1 31 20 1502 0 24 175 7
 0 --.00584916012071176 -.00125 .0065 0 0 -1 -1 0 0 .03 16 24 1492 0 ?33 10 176
 20 0 0 1 17 54 0 177 116 178 52 179 176 0 137 +15 177 1303 0 122 180 0 17 116 0
 177 122 54 114 137 181 0 132 +17 178 0 177 54 23 34 182 183 0 179 +17 179 0 184
 185 142 34 54 176 0 0 -17 137 0 131 133 132 52 116 181 0 142 -16 181 1441 0 ?11
6 186 183 187 0 0 1 17 142 0 184 179 51 52 133 143 0 0 -15 184 1514 0 179 188 0
 17 51 0 184 142 185 49 46 174 0 133 -17 185 0 184 51 179 44 39 171 0 0 -17 46 0
 35 37 134 44 51 174 0 189 +17 37 0 35 33 46 47 189 145 0 0 -17 189 0 190 39 170
 44 37 145 0 185 +15 190 1296 0 189 191 0 17 39 0 190 182 189 34 185 171 0 178 +
17 170 0 190 189 182 47 192 168 0 37 +16 145 1452 0 ?189 135 193 194 0 0 1 16 19
3 1195 0 ?29 145 0 195 0 0 1 30 194 1327 0 145 195 146 0 +.0125 .02875 .0065 1 0
 0 30 195 1328 0 193 196 194 0 +-.0125 .02875 .0065 .906307787036649 .4226182617
40701 0 30 146 1326 0 135 194 197 0 +.02375 .02350403884575625 .0065 .9063077870
36649 -.4226182617407015 0 30 197 1324 0 144 146 198 0 +-.02375 .03 .0065 -1 0 0
 16 144 1191 0 ?150 199 135 197 0 0 1 31 198 933 0 200 197 201 0 +58170722959499
3e-33 .028 -.021 0 1 0 0 0 1 .0012 16 200 914 0 ?202 203 186 198 0 0 1 31 201 90
0 0 203 198 204 0 +.01608693330549855 .028 -.0134985398034173 0 1 0 0 0 1 .0012
 16 203 881 0 ?205 206 200 201 0 0 1 31 204 867 0 206 201 207 0 +581707229594993
e-33 .028 .021 0 1 0 0 0 1 .0012 16 206 848 0 ?208 209 203 204 0 0 1 38 12 CCCCC
CCCCCCA17 intersection_data204 0 Z207 764 0 209 204 210 0 +211 212 213 214 215 2
16 16 209 623 0 ?217 218 206 207 0 0 1 31 210 763 0 218 207 219 0 -1990051048614
45e-32 -.013 .01625 0 -1 0 0 0 -1 .00555 52 255 211 231 220 221 222 223 224 +0 -
.013 0 0 1 0 .013 .2588190451025215 .965925826289068 0 0 1 51 212 742 0 1 225 22
6 227 -199005104861445e-32 -.022 .01625 0 1 0 .00555 0 0 1 40 255 2 213 0 1 2 19
66909945371005e-20 .0247458630444165 ??-.003975402673733735 -.0130002 .012377187
89744834 -.00426797390257829 -.01150697967697242 .0127021980372475 41 3 CI8 term
_use0 0 1 cCZ1 214 L?-.003975402673733735 -.0130002 .01237718789744834 41 1 215
 L?-.00426797390257829 -.01150697967697242 .0127021980372475 204 2 17 INTERSECTI
ON_DATA17 Intersection data7 uv_type0 0 1 u6 values0 1 1 fT8 216 4 5.97240519949
923 -200000000000547e-21 3.940061907851835 .0089998 5.95903417432633 .0014930203
23027582 4.018874730984075 .01049302032302758 51 225 745 0 1 228 212 229 -.01244
82222006834 -.022 -.01044529865740624 0 1 0 .00555 0 0 1 51 226 739 0 1 212 230
 231 -199005104861445e-32 -.022 -.01625 0 1 0 .00555 0 0 1 141 255 227 207 232 2
32 212 141 232 233 227 227 212 38 233 761 0 234 219 235 0 +211 212 236 237 238 2
39 16 234 621 0 ?240 241 242 233 0 0 1 30 219 762 0 242 210 233 0 +-.00426793716
784104 -.011 .01270215384615384 0 1 0 30 235 760 0 241 233 243 0 -.0042679371678
41045 -.011 .01270215384615384 0 1 0 40 2 236 0 1 2 1966909945370985e-20 .024745
8630444165 ??.004267973902578295 -.01150697967697242 .0127021980372475 .00397540
267373374 -.0130002 .01237718789744834 41 1 237 L?.004267973902578295 -.01150697
967697242 .0127021980372475 41 1 238 L?.00397540267373374 -.0130002 .01237718789
744834 204 8 239 4 .324151132853261 .001493020323027582 2.264310576195515 .01049
302032302758 .310780107680357 -200000000000547e-21 2.34312339932775 .0089998 16
 241 620 0 ?244 245 234 235 0 0 1 38 243 758 0 245 235 246 0 +211 226 247 248 24
9 250 16 245 703 0 ?251 252 241 243 0 0 1 31 246 757 0 252 243 253 0 -1990051048
61445e-32 -.013 -.01625 0 -1 0 0 0 -1 .00555 40 2 247 0 1 2 1966909945371005e-20
 .0247458630444165 ??.00397540267373374 -.0130002 -.01237718789744834 .004267973
902578295 -.01150697967697242 -.0127021980372475 41 1 248 L?.00397540267373374 -
.0130002 -.01237718789744834 41 1 249 L?.004267973902578295 -.01150697967697242
 -.0127021980372475 204 8 250 4 2.830812545909435 -200000000000547e-21 .79846925
4262041 .0089998 2.81744152073653 .001493020323027582 .87728207739428 .010493020
32302758 16 252 702 0 ?254 255 245 246 0 0 1 30 253 756 0 255 246 256 0 +.004267
937167841045 -.011 -.01270215384615384 0 1 0 16 255 704 0 ?95 257 252 253 0 0 1
 38 256 755 0 257 253 258 0 +211 226 259 260 261 262 16 257 701 0 ?263 264 255 2
56 0 0 1 30 258 754 0 264 256 265 0 --.00426793716784104 -.011 -.012702153846153
84 0 1 0 40 2 259 0 1 2 1966909945370985e-20 .0247458630444165 ??-.0042679739025
78295 -.01150697967697242 -.0127021980372475 -.003975402673733735 -.0130002 -.01
237718789744834 41 1 260 L?-.004267973902578295 -.01150697967697242 -.0127021980
372475 41 1 261 L?-.003975402673733735 -.0130002 -.01237718789744834 204 8 262 4
 3.465743786443055 .001493020323027582 5.40590322978531 .01049302032302758 3.452
37276127015 -200000000000547e-21 5.48471605291755 .0089998 16 264 700 0 ?266 267
 257 258 0 0 1 38 265 752 0 267 258 268 0 +211 225 269 270 271 272 16 267 663 0
 ?273 274 264 265 0 0 1 31 268 751 0 274 265 275 0 -.0124482222006834 -.013 -.01
044529865740624 0 -1 0 0 0 -1 .00555 40 2 269 0 1 2 1966909945370635e-20 .024745
8630444142 ??.0120368155924706 -.01300019999999986 -.0049105678958679 .012473848
96487306 -.01150697967697242 -.00489535782268042 41 1 270 L?.0120368155924706 -.
01300019999999986 -.0049105678958679 41 1 271 L?.01247384896487306 -.01150697967
697242 -.00489535782268042 204 8 272 4 1.95814791991227 -199999999873912e-21 6.2
0898993544447 .00899980000000013 1.944776894739365 .001493020323027582 .00461745
139711398 .01049302032302758 16 274 662 0 ?276 277 267 268 0 0 1 30 275 750 0 27
7 268 278 0 +.0124737914998974 -.011 -.00489535755763431 0 1 0 16 277 664 0 ?80
 279 274 275 0 0 1 38 278 749 0 279 275 280 0 +211 225 281 282 283 284 16 279 66
1 0 ?285 286 277 278 0 0 1 30 280 748 0 286 278 287 0 -.00698703723907965 -.011
 -.01143421665964548 0 1 0 40 2 281 0 1 2 196690994537102e-19 .0247458630444164
 ??.00698704747878742 -.01150697967697242 -.01143427320557426 .006926136428089 -
.0130002 -.01100123815061602 41 1 282 L?.00698704747878742 -.01150697967697242 -
.01143427320557426 41 1 283 L?.006926136428089 -.0130002 -.01100123815061602 204
 8 284 4 2.59307916044589 .001493020323027582 4.53323860378814 .0104930203230275
8 2.579708135272985 -200000000000547e-21 4.61205142692038 .0089998 16 286 660 0
 ?288 289 279 280 0 0 1 31 287 485 0 289 280 290 0 +199005104861445e-32 0 .01625
 0 -1 0 0 0 -1 .00555 16 289 439 0 ?291 292 286 287 0 0 1 31 290 484 0 292 287 2
93 0 +199005104861445e-32 .024 .01625 0 -1 0 0 0 -1 .00555 16 292 444 0 ?294 295
 289 290 0 0 1 31 293 483 0 295 290 296 0 +199005104861445e-32 .024 .01625 0 -1
 0 0 0 -1 .0026 16 295 443 0 ?297 298 292 293 0 0 1 31 296 482 0 298 293 299 0 +
199005104861445e-32 .03 .01625 0 -1 0 0 0 -1 .0026 16 298 442 0 ?300 301 295 296
 0 0 1 31 299 408 0 301 296 302 0 +199005104861445e-32 0 -.01625 0 -1 0 0 0 -1 .
00555 16 301 362 0 ?303 304 298 299 0 0 1 31 302 407 0 304 299 305 0 +1990051048
61445e-32 .024 -.01625 0 -1 0 0 0 -1 .00555 16 304 367 0 ?306 307 301 302 0 0 1
 31 305 406 0 307 302 308 0 +199005104861445e-32 .024 -.01625 0 -1 0 0 0 -1 .002
6 16 307 366 0 ?309 310 304 305 0 0 1 31 308 405 0 310 305 311 0 +19900510486144
5e-32 .03 -.01625 0 -1 0 0 0 -1 .0026 16 310 365 0 ?312 313 307 308 0 0 1 31 311
 331 0 313 308 314 0 +.0124482222006834 0 -.01044529865740624 0 -1 0 0 0 -1 .005
55 16 313 285 0 ?315 316 310 311 0 0 1 31 314 330 0 316 311 317 0 +.012448222200
6834 .024 -.01044529865740624 0 -1 0 0 0 -1 .00555 16 316 290 0 ?318 319 313 314
 0 0 1 31 317 329 0 319 314 320 0 +.0124482222006834 .024 -.01044529865740624 0
 -1 0 0 0 -1 .0026 16 319 289 0 ?321 322 316 317 0 0 1 31 320 328 0 322 317 323
 0 +.0124482222006834 .03 -.01044529865740624 0 -1 0 0 0 -1 .0026 16 322 288 0 ?
324 325 319 320 0 0 1 31 323 117 0 325 320 326 0 +0 -.013 0 0 -1 0 0 0 -1 .005 1
6 325 70 0 ?327 328 322 323 0 0 1 31 326 119 0 329 323 330 0 +0 0 0 0 -1 0 0 0 -
1 .0134 16 329 417 0 ?331 332 328 326 328 332 1 31 330 120 0 333 326 334 0 +0 0
 0 0 -1 0 0 0 -1 .02375 16 333 85 0 ?335 336 332 330 0 0 1 31 334 121 0 336 330
 337 0 +0 .03 0 0 -1 0 0 0 -1 .02375 16 336 1062 0 ?158 338 333 334 338 338 1 31
 337 182 0 339 334 340 0 +0 -.022 0 0 -1 0 0 0 -1 .0046 16 339 179 0 ?341 342 33
8 337 0 0 1 31 340 188 0 342 337 343 0 -0 -.0205071796769725 0 0 -1 0 0 0 -1 .00
5 16 342 185 0 ?344 345 339 340 0 0 1 31 343 194 0 346 340 347 0 +0 -.013 0 0 -1
 0 0 0 -1 .013 16 346 191 0 ?348 349 350 343 345 350 1 31 347 200 0 351 343 352
 0 -0 -.01150717967697242 0 0 -1 0 0 0 -1 .0134 16 351 197 0 ?353 354 355 347 34
9 355 1 31 352 955 0 354 347 356 0 +581707229594993e-33 .0293131306451363 .021 0
 1 0 0 0 1 .0012 16 354 952 0 ?357 358 351 352 0 0 1 31 356 961 0 358 352 359 0
 -581707229594993e-33 .03 -.021 0 1 0 0 0 1 .001450000000000014 16 358 958 0 ?36
0 361 354 356 0 0 1 31 359 967 0 361 356 362 0 -.01608693330549855 .03 -.0134985
398034173 0 1 0 0 0 1 .001450000000000014 16 361 964 0 ?363 364 358 359 0 0 1 31
 362 973 0 364 359 365 0 -581707229594993e-33 .03 .021 0 1 0 0 0 1 .001450000000
000014 16 364 970 0 ?366 367 361 362 0 0 1 31 365 979 0 367 362 368 0 +.01608693
330549855 .0293131306451363 -.0134985398034173 0 1 0 0 0 1 .0012 16 367 976 0 ?3
69 370 364 365 0 0 1 31 368 985 0 370 365 371 0 +581707229594993e-33 .0293131306
451363 -.021 0 1 0 0 0 1 .0012 16 370 982 0 ?372 373 367 368 0 0 1 30 371 1067 0
 373 368 163 0 +-.0228432156230247 0 .0065 0 -1 0 16 373 1065 0 ?374 154 370 371
 0 0 1 32 163 1071 0 154 371 155 0 -0 .0345788457269375 0 .422618261740701 -.906
307787036649 0 -.906307787036649 -.422618261740701 0 .0262052255753592 .02375 16
 154 1069 0 ?375 148 373 163 0 0 1 17 375 0 27 29 28 55 113 154 0 374 +15 27 130
0 0 29 376 0 17 29 0 27 25 375 26 36 193 0 30 +17 28 0 27 375 25 111 32 199 0 0
 -17 113 0 151 377 374 111 375 154 0 166 -17 374 0 151 113 152 55 125 373 0 0 +1
7 152 0 151 374 147 123 153 338 0 0 +17 125 0 35 128 36 123 374 373 0 150 -17 36
 0 35 125 33 55 29 193 0 375 -17 150 0 378 153 153 123 128 144 0 152 +15 378 97
 0 153 16 0 17 153 0 378 150 150 126 152 338 0 0 -16 338 1053 0 ?152 339 336 334
 336 336 1 14 255 16 1109 379 ?156 0 380 5 381 +382 382 156 0 22 81 1 379 1771 3
83 16 384 0 0 385 386 14 156 1075 385 ?387 16 151 5 388 +0 0 387 16 22 15 380 43
0 0 300 16 389 50 255 381 114 0 382 388 390 0 +.02375 .03 0 0 1 0 0 0 1 14 382 9
8 391 ?392 393 394 5 381 +16 16 392 393 22 13 22 65 0 0 0 0 0 0 9 16 81 1 391 17
73 383 382 395 0 385 396 397 14 392 88 396 ?398 382 399 5 400 +0 0 398 382 22 14
 393 106 401 ?382 402 403 5 390 +0 0 382 402 22 15 394 1112 0 404 382 405 17 404
 0 394 406 406 120 119 186 0 158 -15 405 965 0 363 382 407 17 363 0 405 363 363
 0 408 361 0 0 +15 407 959 0 360 382 409 17 360 0 407 360 360 0 410 358 0 0 +15
 409 353 0 312 382 411 17 312 0 409 312 312 0 412 310 0 0 +15 411 276 0 324 382
 0 17 324 0 411 324 324 0 413 322 0 0 +17 413 0 414 413 413 0 324 322 0 0 -15 41
4 308 0 413 415 416 14 415 305 417 ?418 419 414 5 420 -0 0 418 419 22 15 416 309
 0 321 415 0 17 321 0 416 321 321 0 421 319 0 0 +17 421 0 422 421 421 0 321 319
 0 0 -15 422 313 0 421 418 423 14 418 310 424 ?425 415 422 5 426 -0 0 425 415 22
 15 423 314 0 318 418 0 17 318 0 423 318 318 0 427 316 0 0 +17 427 0 428 427 427
 0 318 316 0 0 -15 428 318 0 427 425 429 14 425 315 430 ?431 418 428 5 432 -0 0
 431 418 22 15 429 319 0 315 425 0 17 315 0 429 74 59 78 433 313 0 434 +17 74 0
 429 77 315 72 80 277 0 273 -17 59 0 429 315 68 57 288 286 0 435 -17 433 0 399 4
36 434 57 315 313 0 0 -17 434 0 399 433 437 78 438 332 0 0 -15 399 420 0 437 392
 439 17 437 0 399 434 440 63 291 289 0 438 -17 438 0 441 244 80 63 434 332 0 0 +
16 332 264 0 ?438 333 329 326 329 328 1 16 328 340 0 ?435 329 325 326 332 329 1
 17 435 0 442 288 95 57 436 328 0 433 +15 442 153 0 435 443 0 17 288 0 442 444 4
35 66 59 286 0 445 +17 95 0 442 435 444 93 89 255 0 303 +17 436 0 399 446 433 93
 435 328 0 0 -17 446 0 399 440 436 60 303 301 0 0 -17 440 0 399 437 446 108 331
 329 0 0 -17 303 0 447 89 62 93 446 301 0 436 +15 447 396 0 303 448 0 17 89 0 44
7 92 303 87 95 255 0 251 -17 62 0 447 303 83 60 266 264 0 331 -17 83 0 447 62 86
 81 263 257 0 266 -17 266 0 449 353 331 81 62 264 0 450 +17 331 0 449 266 110 60
 440 329 0 446 +15 449 606 0 353 387 0 17 110 0 449 331 353 108 104 242 0 291 +1
7 353 0 449 110 266 102 450 351 0 0 +17 104 0 451 107 291 102 110 242 0 217 -16
 242 624 0 ?110 234 218 219 0 0 1 17 291 0 451 104 65 108 437 289 0 440 +15 451
 473 0 291 452 0 17 65 0 451 291 98 63 244 241 0 437 -17 98 0 451 65 101 96 240
 234 0 244 -17 244 0 441 453 438 96 65 241 0 454 +15 441 598 0 438 455 0 17 453
 0 441 80 244 72 454 355 0 0 +17 454 0 456 240 273 96 453 355 0 0 -15 456 573 0
 454 221 0 17 240 0 456 457 454 99 98 234 0 458 +17 273 0 456 454 457 72 77 267
 0 453 +16 355 531 0 ?453 351 349 347 351 349 1 16 349 537 0 ?444 355 346 347 35
5 351 1 17 444 0 442 95 288 87 445 349 0 0 +17 445 0 459 285 251 66 444 349 0 0
 -15 459 565 0 445 402 0 17 285 0 459 460 445 69 68 279 0 348 +17 251 0 459 445
 460 87 92 245 0 444 +17 460 0 459 251 285 90 348 346 0 0 -17 92 0 447 86 89 90
 251 245 0 254 -17 86 0 447 83 92 84 254 252 0 263 -17 254 0 461 348 462 90 86 2
52 0 460 +15 461 192 0 458 398 463 17 348 0 461 276 254 69 460 346 0 0 +17 462 0
 461 254 464 84 465 345 0 0 +17 464 0 461 462 458 105 101 218 0 465 +17 465 0 46
6 217 263 105 462 345 0 0 -16 345 554 0 ?462 350 342 343 350 346 1 16 350 548 0
 ?458 346 345 343 346 345 1 17 458 0 461 464 276 99 457 350 0 0 +17 276 0 461 45
8 348 75 71 274 0 457 +17 457 0 456 273 240 75 458 350 0 0 -17 71 0 429 68 77 69
 276 274 0 285 -17 68 0 429 59 71 66 285 279 0 288 -17 77 0 429 71 74 75 273 267
 0 276 -15 466 226 0 465 467 0 17 217 0 466 450 465 102 107 209 0 353 +17 263 0
 466 465 450 84 83 257 0 462 +17 450 0 466 263 217 81 353 351 0 0 -17 107 0 451
 101 104 105 217 209 0 464 -17 101 0 451 98 107 99 464 218 0 240 -16 218 622 0 ?
464 242 209 210 0 0 1 14 467 574 468 ?402 221 466 5 211 +402 221 402 221 22 81 1
 468 1779 383 467 469 0 430 470 471 14 402 570 470 ?393 467 459 5 211 +221 467 3
93 467 22 14 221 578 472 ?467 443 456 5 211 +467 402 467 443 22 81 1 472 1781 38
3 221 473 0 470 474 475 14 443 599 474 ?221 455 442 5 476 +387 455 221 455 22 81
 1 474 1782 383 443 477 0 472 478 479 14 455 607 478 ?443 387 441 5 476 +443 387
 443 387 22 51 476 111 0 387 480 400 0 +0 0 0 0 -1 0 .0134 0 0 -1 14 387 611 481
 ?455 156 449 5 476 +455 443 455 156 22 81 1 481 1784 383 387 482 0 478 483 484
 80 7 CCCCCDI12 legal_owners0 16 1 lCZ1 383 485 486 9000 1 1 1 1 1 1 1 1 0 FFFFT
FTFFFFFFFFF1 81 1 482 1651 487 387 0 481 488 489 490 81 1 478 1783 383 455 489 0
 474 481 491 81 1 483 1785 383 398 492 0 481 493 494 82 255 1 484 -1966538097 14
 398 78 483 ?495 392 461 5 480 +0 0 495 392 22 81 1 492 1660 487 398 0 483 496 4
97 498 81 1 493 1786 383 448 499 0 483 500 501 82 1 494 47317647 14 448 392 493
 ?502 503 504 5 505 -0 0 502 503 22 81 1 499 1668 487 448 0 493 506 507 508 81 1
 500 1787 383 452 509 0 493 510 511 82 1 501 -2053832049 14 452 469 500 ?512 513
 514 5 230 -0 0 512 513 22 81 1 509 1671 487 452 0 500 515 516 517 81 1 510 1788
 383 512 516 0 500 518 519 82 1 511 -2075917681 14 512 853 510 ?520 452 521 5 22
8 -0 0 520 452 22 81 1 516 1672 487 512 0 510 509 522 523 81 1 518 1789 383 524
 525 0 510 526 527 82 1 519 -1917058416 14 524 886 518 ?528 520 529 5 530 -0 0 5
28 520 22 81 1 525 1674 487 524 0 518 522 531 532 81 1 526 1790 383 533 534 0 51
8 535 536 82 1 527 -1932983664 14 533 919 526 ?537 528 538 5 539 -0 0 537 528 22
 81 1 534 1676 487 533 0 526 531 540 541 81 1 535 1791 383 520 522 0 526 542 543
 82 1 536 -1948974448 14 520 857 535 ?524 512 544 5 545 -0 0 524 512 22 81 1 522
 1673 487 520 0 535 516 525 546 81 1 542 1792 383 528 531 0 535 547 548 82 1 543
 -1917648239 14 528 890 542 ?533 524 549 5 550 -0 0 533 524 22 81 1 531 1675 487
 528 0 542 525 534 551 81 1 547 1793 383 537 540 0 542 552 553 82 1 548 -1933573
487 14 537 923 547 ?554 533 555 5 556 -0 0 554 533 22 81 1 540 1677 487 537 0 54
7 534 557 558 81 1 552 1794 383 554 557 0 547 559 560 82 1 553 -1949564271 14 55
4 996 552 ?561 537 562 5 223 +0 0 561 537 22 81 1 557 1678 487 554 0 552 540 563
 564 81 1 559 1795 383 561 563 0 552 565 566 82 1 560 -1903689071 14 561 1010 55
9 ?567 554 568 5 569 +0 0 567 554 22 81 1 563 1679 487 561 0 559 557 570 571 81
 1 565 1796 383 567 570 0 559 572 573 82 1 566 -1902312815 14 567 1024 565 ?138
 561 574 5 575 +0 0 138 561 22 81 1 570 1680 487 567 0 565 563 576 577 81 1 572
 1797 383 138 576 0 565 578 579 82 1 573 -1900936559 14 138 1289 572 ?191 567 13
1 5 580 -0 0 191 567 22 81 1 576 1681 487 138 0 572 570 581 582 81 1 578 1798 38
3 191 581 0 572 583 584 82 1 579 60555932 14 191 1293 578 ?376 138 190 5 585 -0
 0 376 138 22 81 1 581 1682 487 191 0 578 576 586 587 81 1 583 1799 383 376 586
 0 578 588 589 82 1 584 60818076 14 376 1297 583 ?180 191 27 5 590 -0 0 180 191
 22 81 1 586 1683 487 376 0 583 581 591 592 81 1 588 1800 383 180 591 0 583 593
 594 82 1 589 61080220 14 180 1301 588 ?149 376 177 5 595 -0 0 149 376 22 81 1 5
91 1684 487 180 0 588 586 596 597 81 1 593 1801 383 149 596 0 588 598 599 82 1 5
94 61342364 14 149 1304 593 ?188 180 35 5 600 +0 0 188 180 22 81 1 596 1685 487
 149 0 593 591 601 602 81 1 598 1802 383 188 601 0 593 603 604 82 1 599 61604508
 14 188 1513 598 ?18 149 184 5 19 +0 0 18 149 22 81 1 601 1686 487 188 0 598 596
 605 606 81 1 603 1803 383 18 605 0 598 607 608 82 1 604 562234012 14 18 1534 60
3 ?0 188 609 5 6 +0 0 0 188 22 81 1 605 1687 487 18 0 603 601 0 610 81 1 607 180
4 383 419 611 0 603 612 613 82 1 608 564200092 14 419 210 607 ?415 495 614 5 222
 +0 0 415 495 22 81 1 611 1662 487 419 0 607 497 615 616 81 1 612 1805 383 495 4
97 0 607 617 618 82 1 613 -914226602 14 495 73 612 ?419 398 619 5 620 +0 0 419 3
98 22 81 1 497 1661 487 495 0 612 492 611 621 81 1 617 1806 383 431 622 0 612 62
3 624 82 1 618 -927071658 14 431 382 617 ?503 425 625 5 626 -0 0 503 425 22 81 1
 622 1666 487 431 0 617 627 506 628 81 1 623 1807 383 503 506 0 617 629 630 82 1
 624 -2052652403 14 503 387 623 ?448 431 631 5 632 -0 0 448 431 22 81 1 506 1667
 487 503 0 623 622 499 633 81 1 629 1808 383 502 507 0 623 634 635 82 1 630 -205
3242227 14 502 459 629 ?513 448 636 5 637 -0 0 513 448 22 81 1 507 1669 487 502
 0 629 499 515 638 81 1 634 1809 383 513 515 0 629 0 639 82 1 635 -2074738035 14
 513 464 634 ?452 502 640 5 641 -0 0 452 502 22 81 1 515 1670 487 513 0 634 507
 509 642 82 1 639 -2075327859 80 1 487 0 643 8001 0 0 0 0 3 5 0 0 0 FFFFTFTFFFFF
FFFF2 83 255 3 642 .792156862745098 .819607843137255 .933333333333333 79 255 15
 643 SDL/TYSA_COLOUR15 640 467 0 644 513 645 50 641 479 0 513 230 637 0 +.0026 .
024 .01625 0 1 0 0 0 1 51 230 480 0 452 226 641 0 +199005104861445e-32 0 .01625
 0 -1 0 .00555 0 0 -1 51 637 478 0 502 641 505 0 +199005104861445e-32 0 .01625 0
 -1 0 .0026 0 0 -1 51 505 403 0 448 637 632 0 +199005104861445e-32 0 -.01625 0 -
1 0 .00555 0 0 -1 50 632 402 0 503 505 626 0 +.0026 .024 -.01625 0 1 0 0 0 1 51
 626 401 0 431 632 432 0 +199005104861445e-32 0 -.01625 0 -1 0 .0026 0 0 -1 51 4
32 326 0 425 626 426 0 +.0124482222006834 0 -.01044529865740624 0 -1 0 .00555 0
 0 -1 50 426 325 0 418 432 420 0 +.0150482222006834 .024 -.01044529865740624 0 1
 0 0 0 1 51 420 324 0 415 426 620 0 +.0124482222006834 0 -.01044529865740624 0 -
1 0 .0026 0 0 -1 51 620 109 0 495 420 480 0 +0 0 0 0 -1 0 .005 0 0 -1 50 480 110
 0 398 620 476 0 +.005 -.013 0 0 -1 0 0 0 -1 17 644 0 640 644 644 0 297 295 0 0
 -15 645 468 0 294 513 0 17 294 0 645 294 294 0 646 292 0 0 +17 646 0 514 646 64
6 0 294 292 0 0 -15 514 472 0 646 452 451 17 297 0 647 297 297 0 644 295 0 0 +15
 647 463 0 297 502 0 83 3 638 .792156862745098 .819607843137255 .933333333333333
 15 636 462 0 648 502 647 17 648 0 636 648 648 0 300 298 0 0 -17 300 0 380 300 3
00 0 648 298 0 0 +83 3 633 .792156862745098 .819607843137255 .933333333333333 15
 631 390 0 649 503 650 17 649 0 631 649 649 0 309 307 0 0 -15 650 391 0 306 503
 0 17 306 0 650 306 306 0 651 304 0 0 +17 651 0 504 651 651 0 306 304 0 0 -15 50
4 395 0 651 448 447 17 309 0 652 309 309 0 649 307 0 0 +15 652 386 0 309 431 0 8
1 1 627 1665 487 425 0 430 653 622 654 83 3 628 .792156862745098 .81960784313725
5 .933333333333333 81 1 430 1778 383 425 627 0 424 468 655 81 1 653 1664 487 418
 0 424 615 627 656 83 3 654 .792156862745098 .819607843137255 .933333333333333 8
1 1 424 1777 383 418 653 0 417 430 657 81 1 615 1663 487 415 0 417 611 653 658 8
3 3 656 .792156862745098 .819607843137255 .933333333333333 81 1 417 1776 383 415
 615 0 401 424 659 83 3 658 .792156862745098 .819607843137255 .933333333333333 8
1 1 401 1775 383 393 660 0 396 417 661 82 1 659 -2030632307 81 1 660 1657 487 39
3 0 401 662 395 663 81 1 396 1774 383 392 496 0 391 401 664 82 1 661 -923205034
 81 1 496 1659 487 392 0 396 395 492 665 82 1 664 47055503 81 1 395 1658 487 382
 0 391 660 496 666 83 3 665 .792156862745098 .819607843137255 .933333333333333 8
3 3 666 .792156862745098 .819607843137255 .933333333333333 81 1 662 1656 487 402
 0 470 469 660 667 83 3 663 .792156862745098 .819607843137255 .933333333333333 8
1 1 470 1780 383 402 662 0 468 472 668 81 1 469 1655 487 467 0 468 473 662 669 8
3 3 667 .792156862745098 .819607843137255 .933333333333333 81 1 473 1654 487 221
 0 472 477 469 670 83 3 669 .792156862745098 .819607843137255 .933333333333333 8
1 1 477 1653 487 443 0 474 489 473 671 83 3 670 .792156862745098 .81960784313725
5 .933333333333333 81 1 489 1652 487 455 0 478 482 477 672 83 3 671 .79215686274
5098 .819607843137255 .933333333333333 83 3 672 .792156862745098 .81960784313725
5 .933333333333333 82 1 668 -1970666865 82 1 657 -2031222131 82 1 655 -203181195
3 15 625 385 0 412 431 652 17 412 0 625 412 412 0 312 310 0 0 -83 3 621 .7921568
62745098 .819607843137255 .933333333333333 15 619 186 0 344 495 673 17 344 0 619
 344 344 0 674 342 0 0 +15 673 155 0 327 495 0 17 327 0 673 327 327 0 675 325 0
 0 +17 675 0 463 675 675 0 327 325 0 0 -15 463 77 0 675 398 0 17 674 0 614 674 6
74 0 344 342 0 0 -15 614 211 0 674 419 676 15 676 212 0 677 419 0 17 677 0 676 6
77 677 0 341 339 0 0 -17 341 0 403 341 341 0 677 339 0 0 +15 403 180 0 341 393 0
 83 3 616 .792156862745098 .819607843137255 .933333333333333 52 222 217 678 419
 390 211 0 +0 -.022 0 0 1 0 .0046 .258819045102519 .965925826289069 0 0 1 81 2 6
78 218 679 222 0 0 0 220 680 681 50 390 115 0 393 381 222 0 +.005 -.022 0 0 -1 0
 0 0 -1 80 2 679 682 683 8044 0 0 0 0 3 5 0 0 0 FFFFTFFFTTFFFFFF3 2 81 2 220 232
 679 211 0 0 678 684 685 686 84 255 6 680 BACAAB83 4 681 0 .001492820323027486 .
001492820323027486 .0003999999999999795 81 2 684 1004 679 223 0 0 220 687 688 68
9 84 6 685 BACAAB83 4 686 0 .001492820323027582 .001492820323027582 .00040000000
00000095 52 223 1003 684 554 211 569 0 -581707229594993e-33 .0293131306451363 .0
21 0 1 0 .0012 .342020143325666 .939692620785909 0 0 1 81 2 687 1018 679 569 0 0
 684 690 691 692 84 6 688 BACAAB83 4 689 0 .000686869354863701 .0002500000000000
14 .000686869354863701 52 569 1017 687 561 223 575 0 -.01608693330549855 .029313
1306451363 -.0134985398034173 0 1 0 .0012 .342020143325666 .939692620785909 0 0
 1 81 2 690 1032 679 575 0 0 687 0 693 694 84 6 691 BACAAB83 4 692 0 .0006868693
54863701 .000250000000000014 .000686869354863701 52 575 1031 690 567 569 19 0 -5
81707229594993e-33 .0293131306451363 -.021 0 1 0 .0012 .342020143325666 .9396926
20785909 0 0 1 84 6 693 BACAAB83 4 694 0 .000686869354863701 .000250000000000014
 .000686869354863701 51 19 1525 0 188 575 6 0 +.00584916012071176 -.00125 -.0065
 0 0 1 .03 1 0 0 79 17 683 SDL/TYSA_BLEND_ID83 3 610 .792156862745098 .819607843
137255 .933333333333333 15 609 1535 0 695 18 0 17 695 0 609 30 192 11 23 10 0 0
 -17 30 0 609 38 695 26 25 31 0 0 -17 192 0 609 695 38 40 170 168 0 0 -17 23 0 1
77 178 32 40 695 10 0 182 +17 32 0 177 23 166 11 28 199 0 695 +17 182 0 190 170
 39 40 178 183 0 192 -16 183 1458 0 ?178 181 199 696 0 0 1 16 199 1183 0 ?32 183
 144 697 0 0 1 30 696 1333 0 183 697 187 0 +.0125 .02875 -.0065 1 0 0 30 697 133
4 0 199 0 696 0 +-.0125 .02875 -.0065 .906307787036649 .422618261740701 0 30 187
 1332 0 181 696 196 0 +.02375 .02350403884575625 -.0065 .906307787036649 -.42261
82617407015 0 30 196 1330 0 186 187 195 0 +-.02375 .03 -.0065 -1 0 0 16 186 1169
 0 ?119 200 181 196 0 0 1 17 119 0 177 166 122 117 404 186 0 377 +17 166 0 177 3
2 119 111 377 161 0 28 +17 122 0 177 119 116 120 141 159 0 404 +17 377 0 151 158
 113 117 166 161 0 406 -17 158 0 151 141 377 120 406 336 0 0 +17 406 0 394 404 4
04 117 158 336 0 0 -17 38 0 609 192 30 47 33 24 0 170 -83 3 606 .792156862745098
 .819607843137255 .933333333333333 83 3 602 .792156862745098 .819607843137255 .9
33333333333333 50 600 1315 0 149 595 580 0 +0 0 .0065 0 0 -1 -1 0 0 50 595 1316
 0 180 0 600 0 +0 0 -.0065 0 0 -1 -1 0 0 50 580 1312 0 138 600 585 0 +.02375 .02
350403884575625 -.0065 -.4226182617407015 -.906307787036649 0 .906307787036649 -
.4226182617407015 0 50 585 1311 0 191 580 590 0 +.0125 .02875 -.0065 0 -1 0 0 0
 -1 50 590 1310 0 376 585 556 0 +-.0125 .02875 -.0065 .422618261740701 -.9063077
87036649 0 .906307787036649 .422618261740701 0 51 556 932 0 537 590 539 0 +58170
7229594993e-33 .03 -.021 0 1 0 .0012 0 0 1 50 539 931 0 533 556 550 0 +148026360
600791e-33 .028 -.021 0 -1 0 0 0 -1 51 550 899 0 528 539 530 0 +.016086933305498
55 .03 -.0134985398034173 0 1 0 .0012 0 0 1 50 530 898 0 524 550 545 0 +.0160869
3330549855 .028 -.0134985398034173 0 -1 0 0 0 -1 51 545 866 0 520 530 228 0 +581
707229594993e-33 .03 .021 0 1 0 .0012 0 0 1 50 228 865 0 512 545 225 0 +14802636
0600791e-33 .028 .021 0 -1 0 0 0 -1 83 3 597 .792156862745098 .819607843137255 .
933333333333333 83 3 592 .792156862745098 .819607843137255 .933333333333333 83 3
 587 .792156862745098 .819607843137255 .933333333333333 83 3 582 .79215686274509
8 .819607843137255 .933333333333333 83 3 577 .792156862745098 .819607843137255 .
933333333333333 15 574 1025 0 410 567 698 17 410 0 574 410 410 0 360 358 0 0 -15
 698 1026 0 699 567 0 17 699 0 698 699 699 0 372 370 0 0 -17 372 0 555 372 372 0
 699 370 0 0 +15 555 983 0 372 537 700 15 700 926 0 701 537 0 17 701 0 700 701 7
01 0 202 200 0 0 -17 202 0 538 202 202 0 701 200 0 0 +15 538 922 0 202 533 0 83
 3 571 .792156862745098 .819607843137255 .933333333333333 15 568 1011 0 408 561
 702 17 408 0 568 408 408 0 363 361 0 0 -15 702 1012 0 703 561 0 17 703 0 702 70
3 703 0 369 367 0 0 -17 369 0 549 369 369 0 703 367 0 0 +15 549 977 0 369 528 70
4 15 704 893 0 705 528 0 17 705 0 704 705 705 0 205 203 0 0 -17 205 0 529 205 20
5 0 705 203 0 0 +15 529 889 0 205 524 0 83 3 564 .792156862745098 .8196078431372
55 .933333333333333 15 562 997 0 706 554 707 17 706 0 562 706 706 0 366 364 0 0
 -15 707 998 0 708 554 0 17 708 0 707 708 708 0 357 354 0 0 -17 357 0 544 357 35
7 0 708 354 0 0 +15 544 953 0 357 520 709 15 709 860 0 710 520 0 17 710 0 709 71
0 710 0 208 206 0 0 -17 208 0 521 208 208 0 710 206 0 0 +15 521 856 0 208 512 0
 17 366 0 389 366 366 0 706 364 0 0 +15 389 971 0 366 16 378 83 3 558 .792156862
745098 .819607843137255 .933333333333333 83 3 551 .792156862745098 .819607843137
255 .933333333333333 83 3 546 .792156862745098 .819607843137255 .933333333333333
 83 3 541 .792156862745098 .819607843137255 .933333333333333 83 3 532 .792156862
745098 .819607843137255 .933333333333333 83 3 523 .792156862745098 .819607843137
255 .933333333333333 83 3 517 .792156862745098 .819607843137255 .933333333333333
 83 3 508 .792156862745098 .819607843137255 .933333333333333 83 3 498 .792156862
745098 .819607843137255 .933333333333333 82 1 491 -1966931313 81 1 488 1650 487
 156 0 385 384 482 711 83 3 490 .792156862745098 .819607843137255 .9333333333333
33 81 1 385 1772 383 156 488 0 379 391 712 81 1 384 1649 487 16 0 379 0 488 713
 83 3 711 .792156862745098 .819607843137255 .933333333333333 83 3 713 .792156862
745098 .819607843137255 .933333333333333 82 1 712 -1850146157 79 14 486 SWEntUnc
hanged50 400 112 0 392 476 388 0 +.0134 0 0 0 -1 0 0 0 -1 51 388 113 0 156 400 3
81 0 +0 0 0 0 -1 0 .02375 0 0 -1 82 1 479 -1967717745 82 1 475 -1969880433 82 1
 471 -1970273649 17 80 0 441 438 453 78 74 277 0 315 +15 439 152 0 335 392 0 17
 335 0 439 335 335 0 714 333 0 0 +17 714 0 157 714 714 0 335 333 0 0 -15 157 92
 0 714 156 0 82 1 397 1192428179 82 1 386 -1835662701 141 231 243 715 715 226 14
1 715 256 231 231 226 141 229 265 716 716 225 141 716 278 229 229 225 141 224 20
7 717 718 211 141 717 278 719 224 211 141 718 233 224 720 211 141 720 243 718 72
1 211 141 721 256 720 719 211 141 719 265 721 717 211 19 17 61 0 1 0 9 5 0 S0 74
 4 CI16 index_map_offset0 0 1 dCCZ20 15 10 0 0 722 723 634 690 724 725 726 13 60
5 2 0 0 0 0 0 0 0 0 0 0 81 2 722 164 727 1 0 723 0 0 0 728 81 2 723 168 729 1 72
2 724 0 0 0 730 81 1 724 1563 731 1 723 725 0 0 732 81 2 725 1604 733 1 724 726
 0 0 0 734 81 2 726 1646 735 1 725 13 0 0 736 0 81 2 13 1647 737 1 726 2 0 0 0 0
 80 2 737 738 739 9000 0 0 0 0 3 5 0 0 0 FFTFFFFFFFFFFFFF9 1 79 16 739 BODY_RECI
PE_200180 2 735 740 741 9000 0 0 0 0 3 5 0 0 0 FFTFTTTFFTFFFFFF3 3 84 7 736 Fill
et179 21 741 SWIMPLICITBODYNAME_ID80 2 733 742 743 9000 0 0 0 0 3 5 0 0 0 FFTFFF
FFFFFFFFFF9 1 82 1 734 1 79 24 743 BODY_IN_LIGHTWEIGHT_PERM80 1 731 744 745 9000
 1 1 1 1 1 1 1 1 0 FFTFFFFFFFFFFFFF1 82 1 732 392 79 10 745 BODY_MATCH80 2 729 7
46 747 9000 0 0 0 0 3 5 0 0 0 FFTFFFFFFFFFFFFF9 1 82 1 730 292 79 30 747 LAST_BO
DY_MODIFYING_FEATURE_ID80 2 727 748 749 9000 0 0 0 0 3 5 0 0 0 FFTFFFFFFFFFFFFF9
 1 82 1 728 766 79 19 749 ENT_TIME_STAMP_200180 2 12 750 751 9000 0 0 0 0 3 5 0
 0 0 FFTFFFFFFFFFFFFF9 1 82 1 14 117 79 12 751 ATOM_ID_20011 0 
